<mxfile host="app.diagrams.net" modified="2023-05-10T07:45:20.843Z" agent="Mozilla/5.0 (Macintosh; Intel Mac OS X 10_15_7) AppleWebKit/605.1.15 (KHTML, like Gecko) Version/14.1.3 Safari/605.1.15" version="21.2.9" etag="k9eRaGlZurJQmmlGrxXW" type="github">
  <diagram name="Page-1" id="5JRdw9FpwcqTBxhEMo8S">
    <mxGraphModel>
      <root>
        <mxCell id="0" />
        <mxCell id="1" parent="0" />
      </root>
    </mxGraphModel>
  </diagram>
</mxfile>
